<?xml version="1.0" encoding="UTF-8"?>
<svg version="1.1" viewBox="0 0 1024 1024" width="1024" height="1024" xmlns="http://www.w3.org/2000/svg">
<path transform="translate(0)" d="m0 0h1024v1024h-1024z" fill="#02060E"/>
<path transform="translate(509,185)" d="m0 0 7 1 2 2v6l-3 2v23l9 6 18 10 12 6-1-21 2-2 4 1 1 4h-2v21l6 2 4 2-1-56 5-1 2 1-1 59 5 1 17 7-1-34 5-2 2 2-1 35-1 2 11 3-1-56 4-2 2 1-1 59 11 3 3 1-1-41-1-1v-7l2-2h6l2 2v6l-2 2-1 44 7 1 27 8 5 1v-2l8-7 18-18h2l2-4 6-6h2v-6l4-4 5 1 2 2-1 7-8 3-35 35 18 6 13 3v13l-4 62h10l5-5 13-12 16-16 2-1 3-6 5 1 1 5-7 3-9 10-12 11-16 16h-12v13l-1 16-9 9h37l14-14 7-6 3-5h4l1 6-6 3-21 21-45 1-16 16h90l2-2h6l2 2v7l-4 3-5-1v-2l-98-1-2 4-3 3-1 9h-2v3l2 1-1 4 1 2h-2v16l-1 2-1 16-1 2-1 15 2 1v5h2v4h2v4h2l2 2v6h2v2l2 1v5l2 1v3l2 1 1 1 4-6 7-3 7 1 6 6v6l-4 5-5 2h-7l-5-3 2 5-1 4 18 1 1 26 10 16 7 11 7-6 12-13 2-2-1-4-10-11-7-8-6-8h24l11 13 4 4 11-12 5-6h23l-6 7-12 13-2 3h-2l-4 8 7 8 9 10 9 11 2 1v2h-23l-5-5-13-15-5 5-10 11-3 4h-22l-2 4-11 11-6 8 10 9 7 7 5 2-1 5-5-1-7-8-10-10-3-1-12 12 1 5 4 2 28 28v2l4 2 6 6 4 2v5l-5 1-6-8-9-8-5-5-7-8-5-5-6-5-7-8-2-1-8 7-8 8v17l8 7 1 2 6 3v5l-5-1-3-5-11-9-1-2-1-11h-2v2h-2l1 14 22 22-1 4h-4v-5l-4-2-17-17-1-2v-9l-3 2v97l-5 1-1-5 1-88-8 7-5 4v61l-4 1-2-4v-53l-10 9-9 7-7 6h-2v53l4 2v5l-3 3h-6l-3-3 1-6 2-2 1-47-7 4-11 9v42l-4 2-2-2 1-37-5 1v2l-6 4-16 12-14 10-5-1-14-10-38-28 1 47-5 1-1-4v-48l-13-11-7-5 1 60 2 2v5l-2 3h-7l-2-2v-6l2-2v-65l-13-11-16-14v70l-2 2-4-1-1-70-9 10-4-1 1-4 5-4 5-5 2-3-10-9-6-5-7 6-11 11-5 4-3 4h-2l-1 3-8 7-23 23-3 5-5 1-2-2 1-5 6-3 39-39 12-11 7-7-2-4-9-9v-2l-10 8-7 8-12 11-6 6h-2l-2 5h-4l-1-5 8-6 12-11 13-13h2l2-4v-4l-2-2-16-1-2-1 3-10 2-4 13-2 5-7 2-5-1-5-7-12-4-10-7-15-8-16-3-9 21-1 2-6 5-10 1-4h2v-4h2v-3h2l1-7 6-12 3-8 2-5-2-1v-17l-2-1v-19l-2-1v-19l-2-1v-6l-5-5h-96l-2 2h-6l-3-4 1-5 2-2 7 1 1 1h89l-15-15-44-1-6-5-4-5-8-7-5-6-6-2 1-5 4-1 9 10 15 15 37 1-7-8-1-1-1-15v-15h-13l-15-14-3-3v-2h-2v-2h-2v-2l-4-2-10-10v-2l-7-2-1-5 2-2 5 1 3 6 5 5 8 7 5 6 4 3v2l4 2 7 7v2l13 1-1-3-1-27-2-28-1-5v-13l7-3 22-5h2l-2-4-7-6-7-8-10-9-6-7-4-3-6-2-2-2v-6l3-3h5l3 3 1 7 22 22 6 5 6 7 3 2 10-1 27-9h2v-43h-2l-1-2v-6l2-2h7l2 2v6l-2 2-1 41 15-6 18-7 10-4h2l-1-21-7-7v-19h4l1 18 7 7v19l8-2-1-56 2-2 4 1-1 54 23-11 19-10 11-7 1-22-4-2 1-7z" fill="#00033B"/>
<path transform="translate(509,185)" d="m0 0 7 1 2 2v6l-3 2v23l9 6 18 10 12 6-1-21 2-2 4 1 1 4h-2v21l6 2 4 2-1-56 5-1 2 1-1 59 5 1 17 7-1-34 5-2 2 2-1 35-1 2 11 3-1-56 4-2 2 1-1 59 11 3 3 1-1-41-1-1v-7l2-2h6l2 2v6l-2 2-1 44 7 1 27 8 5 1v-2l8-7 18-18h2l2-4 6-6h2v-6l4-4 5 1 2 2-1 7-8 3-35 35 18 6 13 3v13l-4 62h10l5-5 13-12 16-16 2-1 3-6 5 1 1 5-7 3-9 10-12 11-16 16h-12v13l-1 16-9 9h37l14-14 7-6 3-5h4l1 6-6 3-21 21-45 1-16 16h90l2-2h6l2 2v7l-4 3-5-1v-2h-98l-6 4 5-59 3-33 1-20 2-14-9-1-39-12-7-3-10-3-16-6-13-6-10-4-20-9-32-16-6 1-30 15-25 11-27 11-31 11-26 8-9 3h-4l3 44 6 73v9l-5-4h-96l-2 2h-6l-3-4 1-5 2-2 7 1 1 1h89l-15-15-44-1-6-5-4-5-8-7-5-6-6-2 1-5 4-1 9 10 15 15 37 1-7-8-1-1-1-15v-15h-13l-15-14-3-3v-2h-2v-2h-2v-2l-4-2-10-10v-2l-7-2-1-5 2-2 5 1 3 6 5 5 8 7 5 6 4 3v2l4 2 7 7v2l13 1-1-3-1-27-2-28-1-5v-13l7-3 22-5h2l-2-4-7-6-7-8-10-9-6-7-4-3-6-2-2-2v-6l3-3h5l3 3 1 7 22 22 6 5 6 7 3 2 10-1 27-9h2v-43h-2l-1-2v-6l2-2h7l2 2v6l-2 2-1 41 15-6 18-7 10-4h2l-1-21-7-7v-19h4l1 18 7 7v19l8-2-1-56 2-2 4 1-1 54 23-11 19-10 11-7 1-22-4-2 1-7z" fill="#EDFAFA"/>
<path transform="translate(511,313)" d="m0 0 9 3 20 7 10 4 12 4 16 6 12 4 6 3v17l-7 80-2 24-3 5-11 9-14 12-11 9-10 9-10 8-10 9-5 4-4-1-10-9-11-9-9-8-11-9-30-26-1-1-3-31-3-41-1-4-1-17-2-17v-13l12-5 40-14 24-9z" fill="#079AEE"/>
<path transform="translate(763,572)" d="m0 0h23l-6 7-12 13-2 3h-2l-4 8 7 8 9 10 9 11 2 1v2h-23l-5-5-13-15-5 5-10 11-3 4h-22l-2 4-11 11-6 8 10 9 7 7 5 2-1 5-5-1-7-8-10-10-3-1-12 12 1 5 4 2 28 28v2l4 2 6 6 4 2v5l-5 1-6-8-9-8-5-5-7-8-5-5-6-5-7-8-2-1-8 7-8 8v17l8 7 1 2 6 3v5l-5-1-3-5-11-9-1-2-1-11h-2v2h-2l1 14 22 22-1 4h-4v-5l-4-2-17-17-1-2v-9l-3 2v97l-5 1-1-5 1-88-8 7-5 4v61l-4 1-2-4v-53l-10 9-9 7-7 6h-2v53l4 2v5l-3 3h-6l-3-3 1-6 2-2 1-47-7 4-11 9v42l-4 2-2-2 1-37-5 1v2l-6 4-16 12-14 10-5-1-14-10-38-28 1 47-5 1-1-4v-48l-13-11-7-5 1 60 2 2v5l-2 3h-7l-2-2v-6l2-2v-65l-13-11-16-14v70l-2 2-4-1-1-70-9 10-4-1 1-4 5-4 5-5 2-3-10-9-6-5-7 6-11 11-5 4-3 4h-2l-1 3-8 7-23 23-3 5-5 1-2-2 1-5 6-3 39-39 12-11 7-7-2-4-9-9v-2l-10 8-7 8-12 11-6 6h-2l-2 5h-4l-1-5 8-6 12-11 13-13h2l2-4v-4l-2-2-16-1-2-1 3-10 2-4 13-2 5-7 2-5-1-5-7-12-4-10-7-15-8-16-3-8h21l4 8 10 24 4 10v3h2l3-10 5-11 10-23 1-1h20l-2 6-16 34-7 15-6 14 2 4 12 12 8 7 7 6v2l4 2 11 10 11 9 13 11 17 13 18 14 18 13 15 11 5-2 38-28 13-10 9-7 16-13 13-11 11-9 15-14 10-9 16-15 14-14 2-1 1-50h20l1 25 10 16 7 11 7-6 12-13 2-2-1-4-10-11-7-8-6-8h24l11 13 4 4 11-12z" fill="#65B5C4"/>
<path transform="translate(325,573)" d="m0 0h21l4 8 10 24 4 10v3h2l3-10 5-11 10-23 1-1h20l-2 6-16 34-7 15-6 14 2 4 12 12 8 7 4 7 13 12 11 9 15 13 17 13 11 9 15 11 2 2-2 19v12l-3 4-17-13-7-5v3l3 1v2h-2l1 47-5 1-1-4v-48l-13-11-7-5 1 60 2 2v5l-2 3h-7l-2-2v-6l2-2v-65l-13-11-16-14v70l-2 2-4-1-1-70-9 10-4-1 1-4 5-4 5-5 2-3-10-9-6-5-7 6-11 11-5 4-3 4h-2l-1 3-8 7-23 23-3 5-5 1-2-2 1-5 6-3 39-39 12-11 7-7-2-4-9-9v-2l-10 8-7 8-12 11-6 6h-2l-2 5h-4l-1-5 8-6 12-11 13-13h2l2-4v-4l-2-2-16-1-2-1 3-10 2-4 13-2 5-7 2-5-1-5-7-12-4-10-7-15-8-16z" fill="#5D8496"/>
<path transform="translate(509,314)" d="m0 0h3v21l-24 8-1 1h-5v2l-18 6-5 1-1 5 28-10 9-3 14-5h3v33l-9 4-19 7-16 5h-2l2 15 2 30 2 16 18 24 7 10 8 11 6 8 1 14v12l-4-1-9-8-11-9-9-8-11-9-30-26-1-1-3-31-3-41-1-4-1-17-2-17v-13l12-5 40-14 24-9z" fill="#0CF8F9"/>
<path transform="translate(511,224)" d="m0 0 5 1 13 8 16 8 19 10 16 7 15 6 29 10 12 5 12 3 14 4 9 3 25 6 7 3-1 24-2 32-1 28-1 5-1 16-33 33h-2v-15l5-55 2-18 2-29-13-3-8-3-14-4-29-10-21-8-13-5-13-6-16-7-16-8-13-7-4-1z" fill="#11233E"/>
<path transform="translate(509,374)" d="m0 0 8 1 35 12 5 2v12l-4 48-28 38-10 13-4 4-11-14-11-16-10-13-8-11-3-29-2-25v-7l13-4 8-3z" fill="#01033B"/>
<path transform="translate(654,643)" d="m0 0h2l3 6 5 5v2h2l3 4 5 3-3 5-9 9-8 7-8 8-8 7-15 13-10 9-11 9-13 11-27 21-16 12-13 10-16 11-4 3h-2v-38l18-13 19-14 11-8 18-14 17-14 13-11 14-12 15-14 13-12z" fill="#11233E"/>
<path transform="translate(387,278)" d="m0 0h3l2 5-2 5h-2l4 11v6l-1 2-32 10-7 1 2 31 6 72v15l-6-3-7-8-12-12-7-8-2-2-4-59-2-31v-15l8-3 34-9z" fill="#68C8D5"/>
<path transform="translate(415,546)" d="m0 0h20l1 31 7-4 4-2h20l10 3 9 7 6 10 1 5v16l-4 9-7 8-8 5-12 3h-10l-12-4-5-3v-2h-2v7h-18z" fill="#AFF9F9"/>
<path transform="translate(509,185)" d="m0 0 7 1 2 2v6l-3 2v23l9 6 18 10 12 6-1-21 2-2 4 1 1 4h-2v21l6 2 4 2-1-56 5-1 2 1-1 59 5 1 17 7-1-34 5-2 2 2-1 35-1 2 11 3-1-56 4-2 2 1-1 59 11 3 3 1-1-41-1-1v-7l2-2h6l2 2v6l-2 2-1 44 7 1 27 8 5 1v-2l8-7 18-18h2l2-4 6-6h2v-6l4-4 5 1 2 2-1 7-8 3-35 35 18 6 13 3v13l-4 62h10l5-5 13-12 16-16 2-1 3-6 5 1 1 5-7 3-9 10-12 11-16 16h-12v13l-1 16-9 9h37l14-14 7-6 3-5h4l1 6-6 3-21 21-45 1-16 16h90l2-2h6l2 2v7l-4 3-5-1v-2h-98l-6 4 1-5 1-1 1-7 1 3 8-7 26-26 1-16 1-5 2-44 2-32 1-8-7-2-25-6-21-6-8-3-7-2-20-7-15-5-7-3-16-6-15-7-17-9-16-8-15-9-3-1v-3l-7 1 5-4 1-22-4-2 1-7z" fill="#6DC7D4"/>
<path transform="translate(539,570)" d="m0 0h18l13 4 9 6 6 9 2 5v15h-60l5 9 5 3 4 1h18l15-6 8 11v2l-14 6-11 2h-20l-13-4-8-6-5-5-3-6-1-5v-15l4-9 7-8 8-5z" fill="#B1FAFA"/>
<path transform="translate(275,545)" d="m0 0h18l14 4 9 4v20l-16-8-6-2h-20l-9 4-5 4-4 7-2 6v14l4 10 8 7 7 3h23l16-7 5-2v20l-7 3-11 4-8 1h-17l-15-3-11-6-9-9-7-14-1-4v-13l3-15 7-12 8-7 12-6z" fill="#F9FCFC"/>
<path transform="translate(357,676)" d="m0 0 4 1 11 9 9 9 4 3v2l4 2 12 11 11 9 9 8 14 11h2l4-15v-10l2-3h3v3l5-1 12 10 18 13 3 3-2 19v12l-3 4-17-13-7-5v3l3 1v2h-2l1 47-5 1-1-4v-48l-13-11-7-5 1 60 2 2v5l-2 3h-7l-2-2v-6l2-2v-65l-13-11-16-14v70l-2 2-4-1-1-70-9 10-4-1 1-4 5-4 5-5 2-3-10-9-6-5-7 6-11 11-5 4-3 4h-2l-1 3-8 7-23 23-3 5-5 1-2-2 1-5 6-3 39-39 12-11 7-7-2-4-9-9z" fill="#D6FBFB"/>
<path transform="translate(470,384)" d="m0 0h4l5 1-3 2-10 2 2 15 2 30 2 16 18 24 7 10 8 11 6 8 1 14v12l-4-1-9-8-11-9-9-8-11-9-30-26-1-1v-6l1 3h2l5 7 3 1-1-5 1-20 1-5 1-17 3-17 3-7 4-8h2v-2h2l1-3 5-1z" fill="#22F5E5"/>
<path transform="translate(325,573)" d="m0 0h21l4 8 10 24 4 10v3h2l3-10 5-11 10-23 1-1h20l-2 6-16 34-14 30-8 16-6 5-7 3h-22l3-10 2-4 13-2 5-7 2-5-1-5-7-12-4-10-7-15-8-16z" fill="#B0FAFA"/>
<path transform="translate(508,221)" d="m0 0h3v36l6 1 21 11 22 10 13 6 13 5 24 9 21 7 5 2 28 8 7 3v15l-2 26-3 28-4 45-1 7-2 1v-9l7-78 1-20 2-14-9-1-39-12-7-3-10-3-16-6-13-6-10-4-20-9-32-16-6 1-30 15-25 11-8 3v-2l-9 3-3-1 2-2 1-16-1-11 3-2 21-9 14-7 9-4 3 1 1 2v19l-2 8 4-1 7-4 1-4 1-28 3-6h2v-3z" fill="#B3FCFB"/>
<path transform="translate(763,572)" d="m0 0h23l-6 7-12 13-2 3h-2l-4 8 7 8 9 10 9 11 2 1v2h-23l-5-5-13-15-5 5-10 11-3 4h-24l3-5 14-14 7-8 4-4-1-4-10-11-7-8-6-8h24l11 13 4 4 11-12z" fill="#AEF8F8"/>
<path transform="translate(670,624)" d="m0 0h2l-2 4-29 29-8 7-15 14-11 9-10 9-14 11-12 10-24 18-18 13-17 12-1 38 16-11 18-13 9-7 3 1-6 7h-2v2l-6 4-16 12-14 10-5-1-14-10-19-14-17-13-1-3-2-1v-3l4 2 20 15 2-3v-14l2-17-10-8-16-12-14-11-14-12-11-9-11-10-8-7-3-5 4 2 3 2v2l4 2 11 10 11 9 13 11 17 13 18 14 18 13 15 11 5-2 38-28 13-10 9-7 16-13 13-11 11-9 15-14 10-9 16-15z" fill="#F3FBFC"/>
<path transform="translate(673,573)" d="m0 0h20l1 25 10 16 7 11-2 4-4 5v4l-3-1-16 15-11 11-6-2-3-3v-2h-2l-3-5-5-5-1-4 16-16 1-3z" fill="#69C8D5"/>
<path transform="translate(415,546)" d="m0 0h20l1 31 7-4 4-2h20l10 3 9 7 6 10 1 5v12h-1v-7h-17l-1 7h-1l-1-10-4-6-5-4-4-1h-12l-12 6v18h-1l-1-9-5-2-12-2v15h-1z" fill="#DEFBFB"/>
<path transform="translate(676,286)" d="m0 0 17 4 15 4v13l-4 62h10l5-5 13-12 16-16 2-1 3-6 5 1 1 5-7 3-9 10-12 11-16 16h-12v13l-1 16-9 9h37l14-14 7-6 3-5h4l1 6-6 3-21 21-45 1-16 16h90l2-2h6l2 2v7l-4 3-5-1v-2h-98l-6 4 1-5 1-1 1-7 1 3 8-7 26-26 1-16 1-5 2-44 2-32 1-8-7-2-22-5 3-3z" fill="#67B4C2"/>
<path transform="translate(654,643)" d="m0 0h2l3 6 5 5v2h2l3 4 5 3-3 5-9 9-8 7-8 8-8 7-8 6-6-2-5-6 1-3h-2l-1 3-9-9v-3l11-9 17-16 13-12z" fill="#5D8497"/>
<path transform="translate(643,571)" d="m0 0h13v19h-17l-8 5-3 6-1 34h-20v-63h20l1 9 7-6z" fill="#DCF7F8"/>
<path transform="translate(242,598)" d="m0 0 9 1 12 14 10 5h23l16-7 5-2v20l-7 3-11 4-8 1h-17l-15-3-11-6-9-9-6-12 1-6 3-2z" fill="#AEF8F8"/>
<path transform="translate(443,713)" d="m0 0h3v3l5-1 12 10 18 13 3 3-2 19v12l-3 4-34-26-7-6-1-3 4-15v-10z" fill="#67C7D4"/>
<path transform="translate(433,261)" d="m0 0 2 1 1 12-1 14-6 5-26 10-9 3-4-1h2l-3-12-1-5h2l1-6-1-5 25-9z" fill="#86DCE5"/>
<path transform="translate(539,570)" d="m0 0h18l13 4 9 6 6 9 2 5v12h-1l-1-6h-13l-5-3-4-8-6-4-3-1h-13l-8 4-3 4-2 6-13 1-6-3-1 3 1-9 6-8 7-6 10-4z" fill="#DDFAFA"/>
<path transform="translate(328,602)" d="m0 0 1 3 3 1 7 8 5 2h2l4 9 6 11-1 5-4 8-3 3-3 1h-10l-1 3v-2h-2l-7-8-10-12-5-2 4-2 3-1 1-9 8-16z" fill="#1B2E48"/>
<path transform="translate(371,646)" d="m0 0 3 1 7 8 11 10v5h-2l-1 5-1 2v8l-2 2-2-1v2l3 1v3l-2 2-1 2 2 1h-3l-8-7-11-10-4-3h-5l-8 7-7 8-12 11-6 6h-2l-2 5h-4l-1-5 8-6 12-11 13-13h2l2-4v-4l-2-2-16-1v-1l20-1 10-5 6-9z" fill="#3E5A72"/>
<path transform="translate(673,573)" d="m0 0h20v58l-1 3h-19l-1-11z" fill="#B3FDFC"/>
<path transform="translate(763,572)" d="m0 0h23l-6 7-12 13-2 3h-2l-2 4-3 2v-2h-15l-13 1-10-11-7-8-6-8h24l11 13 4 4 11-12z" fill="#CEFCFC"/>
<path transform="translate(447,586)" d="m0 0h12l7 3 5 5 2 4v11l-4 6-6 5-3 1h-13l-8-4-4-4v-20l9-6z" fill="#01053C"/>
<path transform="translate(484,741)" d="m0 0 4 2 22 16v39l-4-1v-2l-5-2-12-9-10-7 2-5v-14l2-13z" fill="#E3FEFE"/>
<path transform="translate(453,191)" d="m0 0 4 1-1 54 23-11 19-10 3-1v2l-3 3-1 3-1 28-2 5-11 6-2-1 2-3 1-6v-21l-6 1-20 10-16 7-3-1 2-2-1-1-1-21-7-7v-19h4l1 18 7 7v19l8-2-1-56z" fill="#E2FDFD"/>
<path transform="translate(481,464)" d="m0 0 5 5 10 13 6 9 9 12 1 14v12l-4-1-9-8-11-9-9-8 2-2 3-28z" fill="#B0FAF9"/>
<path transform="translate(628,220)" d="m0 0h6l2 2v6l-2 2-1 44 7 1 27 8 5 1v-2l8-7 18-18h2l2-4 6-6h2v-6l4-4 5 1 2 2-1 7-8 3-35 35 1 4-7 1-21-6-8-3-7-2-20-7-1-5 11 3 3 1-1-41-1-1v-7z" fill="#72B7C4"/>
<path transform="translate(629,667)" d="m0 0h3l4 6 6 5v2l4 2 5 3-2 4-13 12-6 4-6-2-5-6 1-3h-2l-1 3-9-9v-3l11-9z" fill="#3D5971"/>
<path transform="translate(702,636)" d="m0 0 2 1-2 4-9 9-6 8 10 9 7 7 5 2-1 5-5-1-7-8-10-10-3-1-12 12 1 5 4 2 28 28v2l4 2 6 6 4 2v5l-5 1-6-8-9-8-5-5-7-8-5-5-6-5-7-8-2-1-8 7-10 10-8 5-5 5h-3l1-3 8-7 13-12 17-16 9-10 15-15z" fill="#E8FDFD"/>
<path transform="translate(512,257)" d="m0 0 5 1 21 11 22 10 13 6 13 5 24 9 21 7 5 2 28 8 7 3v15l-2 26-3 28-4 45-1 7-2 1v-9l7-78 1-20 2-14-9-1-39-12-7-3-10-3-16-6-13-6-10-4-20-9-26-13-9-4z" fill="#B7DFE5"/>
<path transform="translate(608,598)" d="m0 0 18 3 1 3v31h-20v-29z" fill="#AFF9F8"/>
<path transform="translate(480,438)" d="m0 0 9 5 10 7 12 8 5-2 10-7 15-10h3l-11 14-11 13-9 11-4-2-9-10-20-25z" fill="#13F6F6"/>
<path transform="translate(470,451)" d="m0 0 4 1 7 10 4 11-3 28-5 1-11-10-2-1v-2h2l1-21 3-13z" fill="#0CF9FA"/>
<path transform="translate(411,346)" d="m0 0h5l1 123 5 5-1 3-6-4-4-4z" fill="#46A9B1"/>
<path transform="translate(236,569)" d="m0 0 6 2 11 1 3 4-2 8v14l1 6-4-4-9-1-8 2v5l-2-1-1-4v-13l3-15z" fill="#CDFBFB"/>
<path transform="translate(606,687)" d="m0 0 4 2 1 3 5 2h4l1 4 4 5 5 1-1 3-16 14-5-2-3-6-4-4 1-3-3 1-5-6-2-2z" fill="#1B2E48"/>
<path transform="translate(508,221)" d="m0 0h3l1 37-23 12-3 1 1-3 7-4 1-4 1-28 3-6h2v-3z" fill="#FAFDFD"/>
<path transform="translate(509,185)" d="m0 0 7 1 2 2v6l-3 2v23l9 6 18 10 12 6-1-21 2-2 4 1 1 4h-2v21l6 2v3h2l1 3-5-1-17-9-16-8-15-9-3-1v-3l-7 1 5-4 1-22-4-2 1-7z" fill="#78CED9"/>
<path transform="translate(693,598)" d="m0 0 4 5 13 20 1 4-6 7v4l-3-1-8 7-14-2-5-4-1-3h19z" fill="#5C8396"/>
<path transform="translate(325,573)" d="m0 0h21l4 8 8 20-2 1-1-3-8 2-6 3h-2l-13-27z" fill="#CDFCFC"/>
<path transform="translate(255,433)" d="m0 0 7 1 1 1 91 1 4 5-95 1-2 2h-6l-3-4 1-5z" fill="#36D6D2"/>
<path transform="translate(508,335)" d="m0 0h6l20 7 12 4 14 5 6 1v6l-6-1-22-8-18-6-4-2h-7l-17 6-9 3-22 8h-3v-5l21-7h3v-2l24-8z" fill="#04093E"/>
<path transform="translate(357,676)" d="m0 0 4 1 11 9 11 11-5 1-6-4-17 17-5 4-3 4h-2l-1 3-8 7-23 23-3 5-5 1-2-2 1-5 6-3 39-39 12-11 7-7-2-4-9-9z" fill="#36E4DB"/>
<path transform="translate(670,624)" d="m0 0h2l-2 4-29 29-8 7-15 14-11 9-10 9-14 11-12 10-24 18-18 13-14 10-1-2 5-5 38-28 13-10 14-11 14-12 11-9 10-9 8-7 15-14 13-12z" fill="#E4F7F8"/>
<path transform="translate(608,346)" d="m0 0h4v123l-7 7h-3l2-4 3-3z" fill="#0899EC"/>
<path transform="translate(385,573)" d="m0 0h20l-2 6-10 21-1-2-11 1-5-3 1-6 7-16z" fill="#E1FDFD"/>
<path transform="translate(416,547)" d="m0 0h18v26h-18l-1-17z" fill="#FCFDFD"/>
<path transform="translate(480,239)" d="m0 0 4 1 1 2v19l-2 8h3l-1 3-28 13-9 3-3-2 8-3 17-9 3-5v-10l-1-14-2-1z" fill="#D1FDFD"/>
<path transform="translate(390,708)" d="m0 0 5 4 1 72-2 2-4-1-1-70-9 10-4-1 1-4 5-4 5-5z" fill="#5C8EA0"/>
<path transform="translate(541,583)" d="m0 0h13l8 4 4 5 1 5h-39l2-7 6-5z" fill="#040A3D"/>
<path transform="translate(426,740)" d="m0 0 4 1 1 2 1 61 2 2v5l-2 3h-7l-2-2v-6l2-2z" fill="#33D7D5"/>
<path transform="translate(266,388)" d="m0 0 4 1 7 8 16 16h38l3 3v2l2 1h-43l-6-5-4-5-8-7-5-6-6-2 1-5z" fill="#38C9C7"/>
<path transform="translate(763,433)" d="m0 0h6l2 2v7l-4 3-5-1v-2h-2v-2h-85v-2l-2-1 87-1z" fill="#25F4E3"/>
<path transform="translate(496,484)" d="m0 0 4 5 9 11 2 3 1 14v12l-4-1-10-9 1-8v-16l-3-8z" fill="#CDFCFC"/>
<path transform="translate(486,583)" d="m0 0 4 4 3 9v12h-1v-7h-17l-1 7h-1l-1-10-4-6-4-5 6-2h16z" fill="#CDFBFC"/>
<path transform="translate(682,545)" d="m0 0 7 1 6 6v6l-4 5-5 2h-7l-7-6v-7l4-5z" fill="#F4FAFB"/>
<path transform="translate(685,417)" d="m0 0 3 1-17 17 89 1v1l-85 1v2h85v1l-96 1-6 4 1-5 1-1 1-7 1 3 8-7 6-5 7-6z" fill="#5896A7"/>
<path transform="translate(708,573)" d="m0 0h24l11 13v3l-3-1h-14l-4 2-9-10z" fill="#E3FDFD"/>
<path transform="translate(305,237)" d="m0 0h5l3 3 1 7 22 22 6 5 6 7 6 3-3 2-5 1-2-4-7-6-7-8-10-9-6-7-4-3-6-2-2-2v-6z" fill="#41E1DB"/>
<path transform="translate(626,585)" d="m0 0 5 1 4 3v3l-5 5-3 7-1-3-12-1-6-2v-11l5-1h11z" fill="#CFFDFD"/>
<path transform="translate(754,388)" d="m0 0h4l1 6-6 3-21 21h-47l-8 7v-3l8-8h44l15-15 7-6z" fill="#33E4DA"/>
<path transform="translate(714,237)" d="m0 0 5 1 2 2-1 7-8 3-36 36h-3l2-6 23-23h2l2-4 6-6h2v-6z" fill="#35E7DE"/>
<path transform="translate(669,673)" d="m0 0 3 3v2l4 2 28 28v2l4 2 6 6 4 2v5l-5 1-6-8-9-8-5-5-7-8-5-5-6-5-7-8-2-3z" fill="#32E3DA"/>
<path transform="translate(763,572)" d="m0 0h23l-6 7-9 10-8-3-10-1 2-4z" fill="#D4F1F3"/>
<path transform="translate(389,220)" d="m0 0h7l2 2v6l-2 2-1 41-5 2v-43h-2l-1-2v-6z" fill="#35D3CF"/>
<path transform="translate(236,569)" d="m0 0 6 2 11 1 3 4-3 12-9-2h-9l-3 1 1-11z" fill="#E1FCFD"/>
<path transform="translate(676,286)" d="m0 0 17 4 15 4v13l-1 16-2 13-3-4v-26l1-8-7-2-22-5 3-3z" fill="#76BECB"/>
<path transform="translate(417,585)" d="m0 0 11 1h14l2 2-6 4-3 1v18h-1l-1-9-5-2-12-2v-12z" fill="#D0FDFD"/>
<path transform="translate(266,329)" d="m0 0 5 1 3 6 5 5 8 7 5 6 4 3v2l4 2 7 7v2l13 1v4h-12l-15-14-3-3v-2h-2v-2h-2v-2l-4-2-10-10v-2l-7-2-1-5z" fill="#6AB8C6"/>
<path transform="translate(441,288)" d="m0 0h3v2l-27 11-35 12-20 6-7 1v8l-3 1v-11l39-12 20-7 18-7 9-3z" fill="#E6F8F9"/>
<path transform="translate(753,329)" d="m0 0 5 1 1 5-7 3-9 10-12 11-15 15h-13v-4l11-1 5-5 13-12 16-16 2-1z" fill="#42E0DA"/>
<path transform="translate(674,573)" d="m0 0h19v24h-1v-8l-18-2z" fill="#E3FEFE"/>
<path transform="translate(569,585)" d="m0 0h11l4 2 3 7v12h-1l-1-6h-13l-5-3-4-9 2-2z" fill="#CCFBFC"/>
<path transform="translate(325,573)" d="m0 0h21l4 8 1 6h-19l-5-8z" fill="#E3FCFC"/>
<path transform="translate(396,667)" d="m0 0 4 2 3 2v2l4 2 11 10 11 9 13 11 17 13 18 14 3 3-2 2-21-16-14-11-14-12-11-9-11-10-8-7z" fill="#EEFBFC"/>
<path transform="translate(673,573)" d="m0 0h1v14h12l6 2 1 10-2 3v-2h-12l-5-1v16h-1z" fill="#C7F8FA"/>
<path transform="translate(513,584)" d="m0 0h8l9 2v2l2 1-4 9-13 1-6-3-1 3 1-9z" fill="#CDFCFC"/>
<path transform="translate(480,438)" d="m0 0 9 5 10 7 14 9-1 2-7-2-3 5 4 2 5 7 3 1v-2l2 1-3 4-4-2-9-10-20-25z" fill="#2FE9E0"/>
<path transform="translate(512,257)" d="m0 0 5 1 21 11 22 10 13 6 13 5 16 6-2 3-12-4-13-6-10-4-20-9-26-13-9-4z" fill="#C6EDF0"/>
<path transform="translate(579,754)" d="m0 0h2v50l4 2v5l-3 3h-6l-3-3 1-6 4-2v-48z" fill="#26F1E2"/>
<path transform="translate(609,728)" d="m0 0h1v46h-1l-1-38-5 1v2h-2l-2 4-1 1h-6l-1 7-5 5-1 2h-2l-1 46h-1v-53l10-8 11-9z" fill="#061523"/>
<path transform="translate(506,336)" d="m0 0 2 1-1 1 2 1v2l-17 6-9 3-22 8h-3v-5l21-7h3v-2l9-3z" fill="#0A1342"/>
<path transform="translate(630,734)" d="m0 0 2 2 1 69-5 1-1-5 1-12 1-54z" fill="#28F2E3"/>
<path transform="translate(453,191)" d="m0 0 4 1v55l-5 1-1-55z" fill="#43DEDB"/>
<path transform="translate(438,254)" d="m0 0 5 1-4 2v2l-16 7-30 11-3-1 3-2 1-3 19-7 10-4z" fill="#E9FAFA"/>
<path transform="translate(628,220)" d="m0 0h6l2 2v6l-2 2-1 7-1 37-4-1 1-1v-42l-3-1v-7z" fill="#27F2E4"/>
<path transform="translate(392,714)" d="m0 0h2l1 66 1 4-2 2-4-1 1-70z" fill="#24F4E3"/>
<path transform="translate(379,585)" d="m0 0 14 1 5 3-5 11-1-2-11 1-5-3 1-6z" fill="#CEFDFD"/>
<path transform="translate(353,328)" d="m0 0h2l6 73v3h-2l1 3v14h-1l-7-85v-7z" fill="#F0FDFD"/>
<path transform="translate(509,185)" d="m0 0 7 1 2 2v6l-3 2v23l3 3v2l-4-1-4-4v-23l-4-2 1-7z" fill="#31EFE4"/>
<path transform="translate(412,346)" d="m0 0h3v73l-2 3-1-4z" fill="#1FF8E7"/>
<path transform="translate(365,732)" d="m0 0 4 1v3l-8 7-7 7v26l-4 2-2-1 1-29 15-15z" fill="#3EE3DD"/>
<path transform="translate(456,764)" d="m0 0 4 2 19 14 10 7-3 2-6-3v-2l-6-2-4-2v-2l-12-2v34l-2-3z" fill="#081826"/>
<path transform="translate(351,676)" d="m0 0 2 1-3 5-12 12-8 7-8 8h-2l-2 5h-4l-1-5 8-6 12-11 13-13z" fill="#64B4C3"/>
<path transform="translate(452,761)" d="m0 0 5 2v48l-5 1-1-4z" fill="#4FDBD9"/>
<path transform="translate(668,342)" d="m0 0h1v18l-3 28-4 45-1 7-2 1v-9l8-89z" fill="#E1FEFE"/>
<path transform="translate(611,207)" d="m0 0 4 1-1 61-4-2v-53l-1-5z" fill="#3FEDE4"/>
<path transform="translate(438,232)" d="m0 0 2 1v21l-19 8-11 4-13 5h-2v-5l12-5 15-3 6-2v-2l4-2h3l1-2v2h3l-1-5z" fill="#0A1928"/>
<path transform="translate(568,191)" d="m0 0 6 1-1 4-1 54h-3l-1-53-1-5z" fill="#26F2E3"/>
<path transform="translate(432,207)" d="m0 0h4l1 18 7 7v19l2 1-6 1-1-20-7-7z" fill="#48D7D6"/>
<path transform="translate(556,765)" d="m0 0 3 2v44l-4 2-2-2 1-37-2-1 4-5z" fill="#64B4C3"/>
<path transform="translate(573,195)" d="m0 0 1 2-1 54 5 1 5 2-1 4h-5l-10-5-1-4h-2v-2l4 1v-51h1v53h3v-54z" fill="#5D96A7"/>
<path transform="translate(332,589)" d="m0 0 3 4 8 18 2 5-3 1-8-7-5-5-1-6h2v-4h2v-3l-2-1h2z" fill="#070D3F"/>
<path transform="translate(380,697)" d="m0 0 5 1v2l4 2 12 11 11 9 5 6h-2l-1 2-12-11-11-9v-2l-5-2-7-7z" fill="#D7F7F8"/>
<path transform="translate(387,269)" d="m0 0 3 1v3l-23 8-10 3h-6l-9-8v-2l-2-1 4 1 5 4 6 1 18-4 8-3z" fill="#0C1C2B"/>
<path transform="translate(669,670)" d="m0 0 3 2-5 4-6 7-16 14-5 3-5 5h-3l1-3 8-7 26-24z" fill="#DAFBFC"/>
<path transform="translate(357,676)" d="m0 0 4 1 11 9 11 11-5 1-6-4-7 7v-3l-3-1 6-6-2-4-9-9z" fill="#6DC1CE"/>
<path transform="translate(704,296)" d="m0 0h2l1 11v16l-2 13-3-4v-26l1-8-2-1z" fill="#62AFBE"/>
<path transform="translate(674,736)" d="m0 0 4 1 11 11 1 21-5 1-1-21-10-10z" fill="#5ACED2"/>
<path transform="translate(547,777)" d="m0 0 1 4-5 5-5 4-6 2v2l-5 2-1 3-6 3-4-1 5-5 18-13z" fill="#091726"/>
<path transform="translate(697,387)" d="m0 0h1l1 14h2v-7h1v10l-9 9 36 1v1h-39l-4-2 10-10z" fill="#5FA2B2"/>
<path transform="translate(648,694)" d="m0 0h1l1 16 8 7 1 2 6 3v5l-5-1-3-5-11-9v-17z" fill="#70D5DE"/>
<path transform="translate(670,624)" d="m0 0h2l-2 4-29 29-8 7-4 4-2-1 9-9 7-8 12-11z" fill="#EBFAFB"/>
<path transform="translate(396,667)" d="m0 0 4 2 3 2v2l4 2 11 10 11 9 7 6-1 2-4-2-14-12-10-9-8-7z" fill="#D3F6F8"/>
<path transform="translate(441,288)" d="m0 0h3v2l-27 11-16 5 2-4 15-6 11-4 9-3z" fill="#E3FAFB"/>
<path transform="translate(509,200)" d="m0 0h1v18l-14 9-23 12-1-2 5-2v-2l12-7 16-8 4-1z" fill="#0F2130"/>
<path transform="translate(590,744)" d="m0 0h2l-1 7-5 5-1 2h-2l-1 46h-1v-53z" fill="#1C3142"/>
<path transform="translate(684,658)" d="m0 0 4 1 8 7 8 8 5 2-1 5-5-1-7-8-13-13z" fill="#5EC5CF"/>
<path transform="translate(310,631)" d="m0 0h6l8 7 12 13 9 1v1h-10l-1 3v-2h-2l-7-8-10-12-5-2z" fill="#3F5E75"/>
<path transform="translate(266,329)" d="m0 0 5 1 3 6 5 5 8 7-2 2-5-2-8-8v-2l-7-2-1-5z" fill="#53ABC5"/>
<path transform="translate(574,756)" d="m0 0h3v8l-3 1v2l-9 1-3 4-4 1 1-5z" fill="#0B1B2A"/>
<path transform="translate(636,657)" d="m0 0m-1 1m-1 1m-1 1m-2 1 2 1-5 6-5 5-13 12-9 7-3-1 5-5 14-12 12-11z" fill="#E4F7F9"/>
<path transform="translate(669,437)" d="m0 0 6 1v2h85v1h-92v-3z" fill="#6ECCD8"/>
<path transform="translate(633,266)" d="m0 0h2l1 4 8 3 9 2 5 3 5 2v2l-10-2-20-6z" fill="#041120"/>
<path transform="translate(685,414)" d="m0 0 34 1v1l-6 1v1h-28l-8 7v-3z" fill="#7EDCE5"/>
<path transform="translate(597,691)" d="m0 0 3 1-5 5-9 8-10 8-8 6-2-1 4-5 14-11z" fill="#E2F6F8"/>
<path transform="translate(468,244)" d="m0 0 2 1-12 6-16 7-3-1 2-2-1-2 12-5 9-3h4z" fill="#E3FDFD"/>
<path transform="translate(479,735)" d="m0 0 5 2 19 14 7 5 5-1-1 4-4 1-11-8-12-9-6-4z" fill="#EFF9FA"/>
<path transform="translate(305,237)" d="m0 0h5l3 3v8l-2 1-7-1-2-2v-6z" fill="#32E6DC"/>
<path transform="translate(597,223)" d="m0 0 4 2-1 35h-1l-1-26-1-2-1 28-2-1v-34z" fill="#4B96A3"/>
<path transform="translate(554,767)" d="m0 0 3 1-6 7h-2v2l-6 4-9 7-2-3 5-5z" fill="#D4F6F7"/>
<path transform="translate(643,719)" d="m0 0 4 2 16 16-1 4h-4v-5l-4-2-11-11z" fill="#64CFD5"/>
<path transform="translate(645,696)" d="m0 0 2 1-1 13h-1l-1-11h-2v2h-2l1 14 3 4-2 3-6-7-1-11 5-5z" fill="#60A5B7"/>
<path transform="translate(626,713)" d="m0 0h2v17l-1-3-8-1-3 1 2-6z" fill="#041320"/>
<path transform="translate(353,328)" d="m0 0h2l2 23v15l-2-2-2-15-1-20z" fill="#F3FDFD"/>
<path transform="translate(514,196)" d="m0 0h1l1 5 1 14 2 1v2h2l1 4 6 2 3 3v2l-5-2-10-6-2-2z" fill="#142737"/>
<path transform="translate(372,643)" d="m0 0 7 6 9 9 8 7 2 6-7-6-12-11-6-7-2-2z" fill="#5C889B"/>
<path transform="translate(700,373)" d="m0 0 2 3v18l-1 7-3 1v-20l1-8z" fill="#64E0E7"/>
<path transform="translate(601,297)" d="m0 0 6 1 24 8-1 3-9-2-7-3-10-3-3-2z" fill="#AFD9E0"/>
<path transform="translate(684,277)" d="m0 0 1 2-1 6 7 2 7 3 9 3-2 1-16-4-13-4 6-7z" fill="#061525"/>
<path transform="translate(614,258)" d="m0 0 2 1v3l6 1 6 3v5l-9-2-5-2z" fill="#041120"/>
<path transform="translate(574,752)" d="m0 0 3 1-1 3-16 12-3-3 15-12z" fill="#CEF4F7"/>
<path transform="translate(438,232)" d="m0 0 2 1v21l-17 7v-3l5-2v-2l4-2h3l1-2v2h3l-1-5z" fill="#0B1C2A"/>
<path transform="translate(597,231)" d="m0 0 2 3v27l-3-3v-26z" fill="#78E0E5"/>
<path transform="translate(580,747)" d="m0 0 2 1-1 6-2 1-1 48h-1l-1-50v-3z" fill="#76CFDA"/>
<path transform="translate(505,758)" d="m0 0 2 2-1 2-1 11v14l-2 4-1-3v-18l2-10z" fill="#D0FEFE"/>
<path transform="translate(701,322)" d="m0 0h1l1 9 3-2-1 22h-1l-1-7h-1l-1 5h-1v-11z" fill="#5A99AA"/>
<path transform="translate(443,748)" d="m0 0 12 9v4l3 1-1 2-6-4-10-8v-3z" fill="#E2FBFC"/>
<path transform="translate(674,562)" d="m0 0 5 2 1 4h7l-1 2 6 1v1h-18l1-7z" fill="#04061B"/>
<path transform="translate(540,571)" d="m0 0h17l2 2-8 4-9-2z" fill="#FDFEFE"/>
<path transform="translate(472,348)" d="m0 0 2 1-3 2 1 3-11 4h-3v-5l9-3z" fill="#132342"/>
<path transform="translate(666,677)" d="m0 0 7 6 2 3h-3v-2h-2v-2h-2v-2l-8 7-8 6-3 2 2-4 8-8z" fill="#172938"/>
<path transform="translate(555,218)" d="m0 0 4 1 1 4h-2v11l-1 7h-1l-2-17-1-4z" fill="#2FEADF"/>
<path transform="translate(581,255)" d="m0 0 7 1 8 4v3h-7l-9-4 2-1z" fill="#66B9C7"/>
<path transform="translate(703,310)" d="m0 0h1l1 6h1v13l-1 7-3-4v-15z" fill="#6ED1DC"/>
<path transform="translate(456,226)" d="m0 0h1l2 12 1 2 11-1-4 3-8 4h-3z" fill="#102131"/>
<path transform="translate(395,713)" d="m0 0 8 6 4 5h-5l-1-1-6 2z" fill="#0A1A29"/>
<path transform="translate(676,286)" d="m0 0 13 3 1 4-2 1-14-3 3-3z" fill="#70C1CE"/>
<path transform="translate(686,748)" d="m0 0 3 2 1 19h-4z" fill="#2CF0E3"/>
<path transform="translate(350,669)" d="m0 0 5 1 9 8h-3l-1-1h-5l-4 3v-3h-3l3-3z" fill="#577D91"/>
<path transform="translate(529,790)" d="m0 0 2 1 1 3-5 2-1 3-6 3-4-1 5-5z" fill="#0D1D2B"/>
<path transform="translate(765,573)" d="m0 0h20l-6 7-3 2-2-7-9-1z" fill="#FBFEFE"/>
<path transform="translate(609,256)" d="m0 0h1v9l-9-2-2-1 1-4h9z" fill="#041321"/>
<path transform="translate(668,342)" d="m0 0h1v18l-2 9-2 1 2-27z" fill="#DCF5F6"/>
<path transform="translate(282,348)" d="m0 0 6 2 8 7v2h2v2h-5l-3-3v-2h-2v-2h-2v-2l-4-2z" fill="#6ABCC9"/>
<path transform="translate(533,741)" d="m0 0m-2 1 2 1-1 3-17 12-1-2 5-5z" fill="#E7F8F9"/>
<path transform="translate(357,387)" d="m0 0 3 2 1 15h-2l1 3v14h-1l-2-24z" fill="#E0FDFD"/>
<path transform="translate(451,228)" d="m0 0h1v21l-5 2h-3l1-6h5z" fill="#071523"/>
<path transform="translate(335,729)" d="m0 0v3l-13 13v3l-4 1-4 5v2l-3-1 3-5z" fill="#030C19"/>
<path transform="translate(341,282)" d="m0 0 4 1 1 4-12 3h-2l1-3h3v-2z" fill="#102433"/>
<path transform="translate(611,758)" d="m0 0 2 2v24h-4l1-4z" fill="#6EE2E5"/>
<path transform="translate(414,460)" d="m0 0h1l2 9 5 5-1 3-6-4-3-4v-8z" fill="#24E6E0"/>
<path transform="translate(670,624)" d="m0 0h2l-2 4-16 16-1-2 7-8z" fill="#EFFEFE"/>
<path transform="translate(488,340)" d="m0 0h6l-3 2-4 2h-5v2l-19 6v-2l10-4 6-2z" fill="#38D9D9"/>
<path transform="translate(473,238)" d="m0 0h4l-1 4-11 4-4 1v-3z" fill="#EEFAFB"/>
<path transform="translate(431,744)" d="m0 0 4 2 8 6-2 2-1-1h-9z" fill="#0C1A29"/>
<path transform="translate(666,369)" d="m0 0h1v9l-2 17-2 1v-9l2-17z" fill="#F4FEFE"/>
<path transform="translate(654,716)" d="m0 0 4 1 1 2 6 3v5l-5-1-3-5-3-2z" fill="#43DAD7"/>
<path transform="translate(681,658)" d="m0 0h2l-1 4-9 9-4-1 5-5z" fill="#E8F9FA"/>
<path transform="translate(320,375)" d="m0 0h1l1 15v14l-2-1v-12h-2v-11h2z" fill="#264152"/>
<path transform="translate(634,706)" d="m0 0h2l1 9 2 4-6 1-1-12z" fill="#061423"/>
<path transform="translate(583,703)" d="m0 0m-2 1 2 1-2 4-13 10-2-1 4-5z" fill="#E7F8FA"/>
<path transform="translate(616,675)" d="m0 0m-1 1m-1 1m-2 1 2 1-4 6-9 7-3-1 5-5z" fill="#DBF4F6"/>
<path transform="translate(706,615)" d="m0 0 1 2 5 1 5 2-5 6-3-3-4-7z" fill="#051322"/>
<path transform="translate(701,363)" d="m0 0h1l1 7 1 3 11 1v1h-12v13h-1l-1-12-1-6z" fill="#52AFBA"/>
<path transform="translate(443,753)" d="m0 0 8 6 1 1v17h-1l-1-12-2-5h-2l-1-3-2-1z" fill="#081726"/>
<path transform="translate(462,278)" d="m0 0 3 1-4 4-13 5-3-2 8-3z" fill="#E5FCFD"/>
<path transform="translate(643,719)" d="m0 0 4 2 7 7-2 1-1 2-8-8z" fill="#79D0DC"/>
<path transform="translate(630,717)" d="m0 0 2 1v18l-3-1v-12z" fill="#87DDE6"/>
<path transform="translate(702,636)" d="m0 0 2 1-2 4-8 8-3-2 4-5z" fill="#DBFAFB"/>
<path transform="translate(318,606)" d="m0 0 2 1 1 8-2 5-1 7h-1l-1-19h2z" fill="#03101E"/>
<path transform="translate(266,329)" d="m0 0 5 1 1 6h-7l-1-5z" fill="#3EDCD9"/>
<path transform="translate(370,690)" d="m0 0 3 1-2 4-7 6v-3l-2-1z" fill="#7DD9E2"/>
<path transform="translate(447,250)" d="m0 0 3 1 3 2-11 5-3-1 2-2-1-2z" fill="#DEFCFD"/>
<path transform="translate(382,716)" d="m0 0 2 1-1 5-3 3-4-1 1-4z" fill="#37DFDA"/>
<path transform="translate(669,673)" d="m0 0 3 3v2l4 2 3 4-4-2-1-1-2 2-6-7z" fill="#79C9D4"/>
<path transform="translate(509,200)" d="m0 0h1v18l-11 7v-3l8-5h2z" fill="#081725"/>
<path transform="translate(555,801)" d="m0 0 2 1 2 4v5l-4 2-2-2z" fill="#7ACCD7"/>
<path transform="translate(676,573)" d="m0 0h16v4l-12-1z" fill="#FCFEFE"/>
<path transform="translate(618,303)" d="m0 0 7 1 6 2-1 3-9-2-6-2z" fill="#9AC5CF"/>
<path transform="translate(414,298)" d="m0 0 3 1-3 3-13 4 2-4z" fill="#F0FDFD"/>
<path transform="translate(316,313)" d="m0 0h1l1 23h-1l-1-6h-2v-10h2z" fill="#2A4959"/>
<path transform="translate(667,728)" d="m0 0 4 1 3 3-1 3h-5l-2-3z" fill="#59D6D7"/>
<path transform="translate(310,371)" d="m0 0h10v4h-12l3-1z" fill="#62AFBE"/>
<path transform="translate(412,346)" d="m0 0h3v14l-3-1z" fill="#25F4E6"/>
<path transform="translate(355,317)" d="m0 0 3 1 1 2h-4v8l-3 1v-11z" fill="#D5EBEE"/>
<path transform="translate(542,438)" d="m0 0 2 1-9 12-1-3v-2l-1-2z" fill="#43CFCD"/>
<path transform="translate(368,313)" d="m0 0 3 1 1 2-10 3h-5l2-3z" fill="#E2F3F5"/>
<path transform="translate(400,303)" d="m0 0 2 1-2 3-10 3-3-1 1-2z" fill="#E7F9FA"/>
<path transform="translate(424,294)" d="m0 0h5v2l-13 5v-4z" fill="#E7FBFB"/>
<path transform="translate(644,692)" d="m0 0 2 1-9 11-5 1 1-3 8-7z" fill="#D0F5F7"/>
<path transform="translate(371,725)" d="m0 0h5v5l-1 1h-5l-1-4z" fill="#46DFDA"/>
<path transform="translate(700,356)" d="m0 0 3 2v12h-2l-2 3z" fill="#7CD6E0"/>
<path transform="translate(542,734)" d="m0 0 2 1-1 3-10 7-2-1 4-5z" fill="#DEF5F7"/>
<path transform="translate(417,732)" d="m0 0 8 6 1 4-7-3z" fill="#0D1D2C"/>
<path transform="translate(670,330)" d="m0 0 1 4-1 14h-1l-1-5h-1v-9l2-1z" fill="#9DCED6"/>
<path transform="translate(545,234)" d="m0 0 1 2h7l1-2v7l-6-2-6-3z" fill="#051322"/>
<path transform="translate(613,761)" d="m0 0h1l1 24-4 1-1-2h3z" fill="#6EC4D1"/>
<path transform="translate(437,461)" d="m0 0 1 3h2l6 8-1 2-8-7z" fill="#3AE2DD"/>
<path transform="translate(272,335)" d="m0 0 6 4-1 4-4-2-1-3-5-1v-1z" fill="#5FAEBF"/>
<path transform="translate(353,328)" d="m0 0h2v14l-2-1-1-5v-7z" fill="#F6FEFE"/>
<path transform="translate(745,614)" d="m0 0 5 5-4 2-5-1 3-5z" fill="#080D21"/>
<path transform="translate(694,599)" d="m0 0h2l2 5h2v2h2l4 8h-3l-9-14z" fill="#061524"/>
<path transform="translate(597,231)" d="m0 0 2 3v7l-2 4-1-1v-12z" fill="#30F3E6"/>
<path transform="translate(417,727)" d="m0 0 5 5 2 3-2 1-7-6v-2z" fill="#F2FCFC"/>
<path transform="translate(421,731)" d="m0 0 4 2 6 5v1h-6l-2-4z" fill="#E2FEFE"/>
<path transform="translate(389,660)" d="m0 0 8 6 1 5-7-6-3-4z" fill="#66C1CE"/>
<path transform="translate(385,573)" d="m0 0h20l-1 4-4-2-15-1z" fill="#F7FCFC"/>
<path transform="translate(662,437)" d="m0 0h5l-3 5-6 4 1-5z" fill="#89DCE4"/>
<path transform="translate(485,228)" d="m0 0m-1 1m-1 1m-2 1h2v3l-11 5v-2l5-2v-2z" fill="#0C1C2B"/>
<path transform="translate(691,648)" d="m0 0h2l-2 5-3 3-4-1z" fill="#E6F6F8"/>
<path transform="translate(700,391)" d="m0 0h1v10l-3 1v-10z" fill="#87DDE6"/>
<path transform="translate(672,282)" d="m0 0h2l-1 4 4 1 1 2-5 1v-2l-4-2z" fill="#82D7E1"/>
<path transform="translate(597,256)" d="m0 0h1l1 5 2 2-1 2-7-1-1-2 4-1z" fill="#62DCE1"/>
<path transform="translate(580,747)" d="m0 0 2 1-1 6-5 1-1-4z" fill="#90DAE3"/>
<path transform="translate(614,740)" d="m0 0h2v2h2v2h-2v2h2v2l-4 3z" fill="#050C20"/>
<path transform="translate(550,728)" d="m0 0 2 1-2 4-6 4-2-1 4-5z" fill="#E9FAFA"/>
<path transform="translate(558,722)" d="m0 0 2 1-2 4-5 4-3-1 4-5z" fill="#DBF4F6"/>
<path transform="translate(319,708)" d="m0 0 1 3-2 3h-4l-1-3 2-2z" fill="#3FD1D5"/>
<path transform="translate(636,657)" d="m0 0m-1 1m-1 1m-1 1m-2 1 2 1-5 6-4 4-2-1z" fill="#DEF4F6"/>
<path transform="translate(670,624)" d="m0 0h2l-2 4-7 6v-3z" fill="#DEFCFC"/>
<path transform="translate(667,284)" d="m0 0 4 1v2l2 1v2l-10-2 3-1z" fill="#64AEBD"/>
<path transform="translate(668,278)" d="m0 0h2v2h2v4l-7-1z" fill="#031120"/>
<path transform="translate(480,782)" d="m0 0 4 2 5 4-3 1-6-3-1-3z" fill="#122332"/>
<path transform="translate(503,342)" d="m0 0 4 1-8 4h-7l3-2z" fill="#3ADADB"/>
<path transform="translate(562,246)" d="m0 0h2v3h2l1 3-5-1-6-3 3-1 3 1z" fill="#7DCAD5"/>
</svg>
